<svg width="300" height="300" xmlns="http://www.w3.org/2000/svg" xmlns:xlink="http://www.w3.org/1999/xlink"><defs><path id="a" d="M0 300h300V0H0z"/></defs><g fill="none" fill-rule="evenodd"><mask id="b" fill="#fff"><use xlink:href="#a"/></mask><path d="M147.023 47.27c41.95 57.078 80.373 8.023 131.284 14.027-42.467-45.097-98.92-77.867-143.68-34.87C152.04 49.2 187.254 54.16 233.494 48.08c-29.987 12-58.614 9.63-86.453-.8M136.257 49C148.4 89.35 111.346 90.08 96 116.428c-6.253-36.306-1.653-74.853 34.787-80.76 4.6 16.414-5.613 34.934-25.04 54.734 16.427-9.96 25.534-24.412 30.52-41.386" fill="#6AC334" mask="url(#b)" transform="matrix(1 0 0 -1 0 122.76)"/><path d="M189.363 267.887c17.737-15.872 18.08-41.315 7.37-63.3-2.657-61.52-60.678-107.122-119.384-104.622l4.13 29.522c3.963-.453 8.167-.16 15.09.163 11.122.858 22.214 4.44 31.554 10.226 7.627 4.987 14.163 11.147 19.18 18.263-4.58-1.456-9.293-2.32-14.072-2.416-37.187-.8-63.42 25.973-63.42 61.92 0 35.946 28.813 65.24 62.813 68.8a88.497 88.497 0 0 1 5.054-4.387c-19.174-5.28-34.894-17.24-40.534-43.32-5.626-26.08 8.267-54.68 34.747-60.4 26.48-5.708 58.013 24.266 63.106 47.852 5.106 23.586.026 31.28-8.707 41.332 1.04.107 2.066.254 3.093.4" fill="#F48000" mask="url(#b)" transform="matrix(1 0 0 -1 0 386.312)"/><path d="M182.604 201.066c9.027-13.164 10.86-31.64 3.264-48.506-7.202-16.02-21.104-26.636-36.04-29.374 10.26 5.168 19.15 14.38 24.435 26.62 7.727 17.88 5.693 37.507-3.76 51.262l12.1-.002z" fill="#F48000" mask="url(#b)" transform="matrix(1 0 0 -1 0 324.254)"/></g></svg>